<svg version="1.1" id="Layer_1" xmlns="http://www.w3.org/2000/svg" xmlns:xlink="http://www.w3.org/1999/xlink" x="0px" y="0px"
	 width="100%" viewBox="0 0 1735 281" enable-background="new 0 0 1735 281" xml:space="preserve">
<path fill="#FEFFFF" opacity="1.000000" stroke="none" 
	d="
M1287.000000,282.000000 
	C858.053101,282.000000 429.606201,282.000000 1.079648,282.000000 
	C1.079648,188.398102 1.079648,94.796112 1.079648,1.097059 
	C579.333313,1.097059 1157.666626,1.097059 1735.971924,1.097059 
	C1735.971924,94.727219 1735.971924,188.363617 1735.971924,282.000000 
	C1586.462646,282.000000 1436.981323,282.000000 1287.000000,282.000000 
M1463.823853,230.075302 
	C1471.423462,230.055450 1479.189453,231.050385 1486.593384,229.836777 
	C1515.738525,225.059387 1536.783081,200.392792 1537.127563,170.961700 
	C1537.415771,146.326233 1537.155884,121.684685 1537.267944,97.046425 
	C1537.282593,93.826340 1536.319336,92.651230 1533.013672,92.718384 
	C1524.193970,92.897552 1515.357910,93.029106 1506.549072,92.671638 
	C1502.056396,92.489334 1500.974854,93.943047 1501.011719,98.291519 
	C1501.214600,122.262634 1501.167725,146.236679 1501.072021,170.209167 
	C1501.023804,182.272293 1493.518433,192.090607 1481.824097,195.086670 
	C1478.034546,196.057587 1473.928101,195.791519 1469.412109,195.638138 
	C1455.377075,191.884888 1448.692871,183.148102 1448.680786,168.441498 
	C1448.661377,144.786972 1448.597290,121.131897 1448.752686,97.478371 
	C1448.778198,93.602684 1447.764038,92.209480 1443.716431,92.337181 
	C1434.729980,92.620697 1425.727173,92.508423 1416.733643,92.378578 
	C1413.704956,92.334854 1412.183716,92.984344 1412.204102,96.484016 
	C1412.354248,122.136292 1411.877197,147.800873 1412.504761,173.439377 
	C1413.186157,201.275162 1435.481934,225.632172 1463.823853,230.075302 
M1326.517944,90.341263 
	C1325.342773,90.234016 1324.167480,90.126770 1322.605469,89.621414 
	C1322.070679,89.572807 1321.535889,89.524193 1320.106201,89.180199 
	C1312.477905,89.457680 1304.718506,88.930458 1297.243042,90.147224 
	C1257.734619,96.578033 1231.640625,134.116150 1238.928101,173.452576 
	C1244.338623,202.657867 1271.798218,228.082840 1300.760132,230.341400 
	C1308.193359,230.257904 1315.752075,231.025253 1323.039429,229.951370 
	C1366.772339,223.506638 1398.020508,178.251862 1378.953125,133.118164 
	C1369.278198,110.217293 1351.771484,95.824562 1326.517944,90.341263 
M306.341583,92.855133 
	C302.222809,91.916016 298.104034,90.976906 293.592804,89.650879 
	C293.060913,89.600388 292.529053,89.549896 291.105988,89.192268 
	C283.314392,89.478966 275.357178,88.843239 267.759125,90.207748 
	C229.377090,97.100754 204.026947,131.734955 209.171478,169.799973 
	C213.906448,204.834595 245.447601,230.798920 280.909088,231.062057 
	C285.541504,230.705429 290.236053,230.713058 294.796692,229.935471 
	C337.509644,222.652756 364.276672,181.889816 352.585571,141.103821 
	C345.822906,117.511177 330.374023,101.411873 306.341583,92.855133 
M606.866760,231.039795 
	C617.243530,228.606903 627.620361,226.174026 637.860474,223.773193 
	C638.489502,224.555389 639.476501,226.883713 640.517395,226.908081 
	C651.768616,227.171402 663.028259,227.072418 674.375000,227.072418 
	C674.574646,225.866119 674.770996,225.232605 674.771301,224.598999 
	C674.791443,181.829254 674.768921,139.059448 674.855408,96.289879 
	C674.862000,93.040001 673.446228,92.398224 670.626282,92.433365 
	C661.973816,92.541191 653.316223,92.601334 644.666565,92.412285 
	C640.714722,92.325912 637.580933,92.666466 638.201904,98.067383 
	C636.509277,97.582176 635.277344,97.229027 633.594482,96.351509 
	C626.728577,94.237251 619.862610,92.123001 612.597717,89.623337 
	C612.064514,89.608551 611.531311,89.593758 610.112549,89.259438 
	C603.742981,89.338631 597.373413,89.417831 590.464539,89.375565 
	C589.981750,89.596565 589.498962,89.817574 588.198669,89.953880 
	C586.080566,90.372993 583.939697,90.701332 581.847656,91.224701 
	C544.864197,100.477112 521.653076,136.923874 529.085083,174.038879 
	C536.038818,208.764862 568.963928,233.111389 606.866760,231.039795 
M1627.798584,230.207703 
	C1644.608887,233.183029 1660.369751,229.531723 1675.512695,221.996750 
	C1675.944214,224.029678 1676.241211,225.428192 1676.521606,226.749176 
	C1688.461426,226.749176 1700.042358,226.749176 1711.671143,226.749176 
	C1711.671143,164.041580 1711.671143,101.682274 1711.671143,39.344456 
	C1699.643677,39.344456 1688.075317,39.344456 1675.831177,39.344456 
	C1675.831177,59.066319 1675.831177,78.410133 1675.831177,97.577324 
	C1668.505493,95.209816 1661.755859,93.028458 1654.340088,90.430367 
	C1648.224609,89.903252 1642.101196,88.844177 1635.994873,88.934555 
	C1593.339233,89.565926 1558.664795,128.432022 1565.994507,171.548264 
	C1571.037109,201.210785 1598.150635,227.639496 1627.798584,230.207703 
M110.869370,71.090446 
	C128.216934,71.264648 143.124115,77.708122 156.403412,89.668800 
	C165.258286,80.225174 173.749405,71.169479 182.276398,62.075535 
	C172.054962,50.319771 147.636749,37.409035 129.675858,35.177235 
	C121.855484,34.205486 113.895592,34.356632 105.101662,33.833427 
	C102.402206,34.097359 99.702751,34.361294 96.484894,34.439472 
	C95.996017,34.641384 95.507149,34.843300 94.208618,34.943626 
	C93.140678,35.110512 92.072739,35.277397 90.459320,35.330956 
	C89.979736,35.570770 89.500153,35.810585 88.222473,36.007816 
	C86.439903,36.409630 84.622887,36.698460 82.879829,37.229877 
	C44.775753,48.846817 19.048527,73.302635 10.571479,112.454521 
	C2.214561,151.051559 14.903204,183.712082 45.063534,209.218857 
	C59.724346,221.617554 76.746460,229.063751 96.664543,231.528259 
	C129.843018,235.949875 158.397415,226.221146 182.104614,204.981659 
	C173.134079,195.399384 164.643494,186.329803 156.190079,177.299942 
	C152.284348,180.070526 148.761459,182.828690 144.992996,185.195877 
	C131.797318,193.484894 117.329742,196.015091 101.215431,194.089783 
	C99.129097,193.766083 97.042770,193.442383 94.573471,192.717651 
	C94.047112,192.614029 93.520752,192.510406 92.306953,192.070847 
	C90.895355,191.578903 89.482010,191.091888 88.072403,190.594299 
	C48.838955,176.744431 34.483315,128.850204 59.966782,95.973007 
	C72.526604,79.769112 89.603973,71.855141 110.869370,71.090446 
M771.536377,229.746796 
	C798.558777,233.971375 822.320435,228.175476 841.165405,207.159607 
	C868.470886,176.708511 865.861206,133.624680 833.270996,104.612755 
	C823.179443,95.629311 810.588806,90.933502 796.103760,89.173874 
	C789.736206,89.323647 783.368652,89.473427 776.482910,89.424080 
	C775.994690,89.630653 775.506531,89.837227 774.203247,89.946358 
	C766.178711,92.399879 758.154114,94.853409 749.640137,97.456581 
	C749.640137,78.233635 749.640137,58.831089 749.640137,39.242134 
	C737.484375,39.242134 725.910400,39.242134 714.013611,39.242134 
	C714.013611,101.880089 714.013611,164.225998 714.013611,226.836792 
	C725.905396,226.836792 737.486938,226.836792 749.231262,226.836792 
	C749.620544,225.223526 749.977173,223.745636 750.205261,222.800476 
	C757.371643,225.041092 764.151978,227.160980 771.536377,229.746796 
M1053.608887,231.802017 
	C1085.817261,235.479645 1113.341187,225.416763 1136.376343,204.963837 
	C1127.281006,195.370789 1118.723145,186.344589 1110.028442,177.174057 
	C1108.979492,178.022339 1108.089966,178.739517 1107.202759,179.459702 
	C1106.169434,180.298447 1105.176025,181.192032 1104.100342,181.972183 
	C1090.316772,191.968826 1074.948486,196.154770 1057.170166,194.227707 
	C1045.734985,192.917862 1035.416626,188.877655 1026.211670,181.895508 
	C1009.654358,169.336243 1001.094604,152.541931 1001.450867,131.957443 
	C1002.192627,89.100601 1047.376953,59.329922 1087.285034,75.314529 
	C1095.484619,78.598740 1102.912476,83.809731 1111.419556,88.534370 
	C1119.384399,80.216316 1127.975098,71.244644 1136.660156,62.174484 
	C1136.473022,61.961613 1136.077637,61.424671 1135.596069,60.981117 
	C1134.494019,59.966003 1133.378662,58.960979 1132.218384,58.013702 
	C1104.196533,35.137703 1072.444946,27.952656 1037.629272,37.206726 
	C968.397278,55.608719 938.015625,136.459152 984.533203,194.473419 
	C1001.963196,216.211121 1024.951050,228.665482 1053.608887,231.802017 
M1206.983643,76.500000 
	C1206.983643,64.091187 1206.983643,51.682365 1206.983643,39.351112 
	C1194.515015,39.351112 1182.945801,39.351112 1171.381714,39.351112 
	C1171.381714,102.102104 1171.381714,164.454163 1171.381714,226.722473 
	C1183.399658,226.722473 1194.973511,226.722473 1206.983643,226.722473 
	C1206.983643,176.729111 1206.983643,127.114555 1206.983643,76.500000 
M422.090271,105.500000 
	C422.090271,83.428703 422.090271,61.357414 422.090271,39.342094 
	C409.618805,39.342094 398.051239,39.342094 386.468414,39.342094 
	C386.468414,102.096001 386.468414,164.457962 386.468414,226.742752 
	C398.492249,226.742752 410.075531,226.742752 422.090057,226.742752 
	C422.090057,186.419083 422.090057,146.459549 422.090271,105.500000 
M460.989960,149.500000 
	C460.989960,175.249542 460.989960,200.999084 460.989960,226.780090 
	C473.368286,226.780090 484.949219,226.780090 496.638885,226.780090 
	C496.638885,164.091690 496.638885,101.731308 496.638885,39.301003 
	C484.658508,39.301003 473.089233,39.301003 460.989960,39.301003 
	C460.989960,75.933235 460.989960,112.216621 460.989960,149.500000 
z"/>
<path fill="#34B2FA" opacity="1.000000" stroke="none" 
	d="
M1052.903076,231.441757 
	C1024.951050,228.665482 1001.963196,216.211121 984.533203,194.473419 
	C938.015625,136.459152 968.397278,55.608719 1037.629272,37.206726 
	C1072.444946,27.952656 1104.196533,35.137703 1132.218384,58.013702 
	C1133.378662,58.960979 1134.494019,59.966003 1135.596069,60.981117 
	C1136.077637,61.424671 1136.473022,61.961613 1136.660156,62.174484 
	C1127.975098,71.244644 1119.384399,80.216316 1111.419556,88.534370 
	C1102.912476,83.809731 1095.484619,78.598740 1087.285034,75.314529 
	C1047.376953,59.329922 1002.192627,89.100601 1001.450867,131.957443 
	C1001.094604,152.541931 1009.654358,169.336243 1026.211670,181.895508 
	C1035.416626,188.877655 1045.734985,192.917862 1057.662842,194.718231 
	C1058.423950,196.489456 1059.107056,197.843338 1058.896118,199.039413 
	C1056.987427,209.855896 1054.922241,220.644775 1052.903076,231.441757 
z"/>
<path fill="#31A4FB" opacity="1.000000" stroke="none" 
	d="
M777.001099,89.623199 
	C783.368652,89.473427 789.736206,89.323647 796.665527,89.646820 
	C801.032593,91.829468 800.205078,95.137146 799.767944,98.100899 
	C798.983215,103.420326 798.075378,108.733574 796.895020,113.976440 
	C796.456482,115.924149 795.104614,117.665428 794.174561,119.503517 
	C793.444763,120.945885 792.723022,122.392342 791.536316,123.885056 
	C770.133240,122.206245 755.785583,134.608017 751.143433,149.622589 
	C744.914001,169.771255 756.901367,189.304901 779.085388,196.038971 
	C777.000610,207.584686 777.545410,219.319199 770.932251,229.280884 
	C764.151978,227.160980 757.371643,225.041092 750.205261,222.800476 
	C749.977173,223.745636 749.620544,225.223526 749.231262,226.836792 
	C737.486938,226.836792 725.905396,226.836792 714.013611,226.836792 
	C714.013611,164.225998 714.013611,101.880089 714.013611,39.242134 
	C725.910400,39.242134 737.484375,39.242134 749.640137,39.242134 
	C749.640137,58.831089 749.640137,78.233635 749.640137,97.456581 
	C758.154114,94.853409 766.178711,92.399879 774.746582,90.202713 
	C775.860291,90.180443 776.430725,89.901817 777.001099,89.623199 
z"/>
<path fill="#2E82FB" opacity="1.000000" stroke="none" 
	d="
M94.956436,193.118683 
	C97.042770,193.442383 99.129097,193.766083 101.605072,194.628922 
	C100.346748,204.879547 98.694122,214.590225 97.054276,224.303085 
	C96.671379,226.571045 96.331848,228.846344 95.972366,231.118256 
	C76.746460,229.063751 59.724346,221.617554 45.063534,209.218857 
	C14.903204,183.712082 2.214561,151.051559 10.571479,112.454521 
	C19.048527,73.302635 44.775753,48.846817 82.879829,37.229877 
	C84.622887,36.698460 86.439903,36.409630 88.766983,36.240913 
	C89.875923,36.130764 90.440361,35.787521 91.004799,35.444275 
	C92.072739,35.277397 93.140678,35.110512 94.748703,35.202011 
	C95.860291,35.182007 96.431793,34.903618 97.003296,34.625229 
	C99.702751,34.361294 102.402206,34.097359 105.837975,34.210556 
	C109.042938,34.728260 111.538078,34.701809 113.967918,35.087139 
	C115.020523,35.254066 116.802620,36.304287 116.779106,36.894554 
	C116.611450,41.102650 117.498703,46.350414 115.346008,49.280720 
	C110.376045,56.045956 113.374901,64.182541 109.998726,70.936783 
	C89.603973,71.855141 72.526604,79.769112 59.966782,95.973007 
	C34.483315,128.850204 48.838955,176.744431 88.072403,190.594299 
	C89.482010,191.091888 90.895355,191.578903 92.700447,192.492584 
	C93.714775,192.982422 94.335602,193.050552 94.956436,193.118683 
z"/>
<path fill="#37D2FA" opacity="1.000000" stroke="none" 
	d="
M1655.006226,90.847107 
	C1661.755859,93.028458 1668.505493,95.209816 1675.831177,97.577324 
	C1675.831177,78.410133 1675.831177,59.066319 1675.831177,39.344456 
	C1688.075317,39.344456 1699.643677,39.344456 1711.671143,39.344456 
	C1711.671143,101.682274 1711.671143,164.041580 1711.671143,226.749176 
	C1700.042358,226.749176 1688.461426,226.749176 1676.521606,226.749176 
	C1676.241211,225.428192 1675.944214,224.029678 1675.512695,221.996750 
	C1660.369751,229.531723 1644.608887,233.183029 1627.444946,229.702087 
	C1628.393066,224.460342 1629.952148,219.776764 1630.932495,214.975037 
	C1632.196655,208.783081 1632.997559,202.496552 1634.453613,196.185913 
	C1636.903687,196.110092 1638.899414,196.139832 1640.892700,196.081970 
	C1663.898926,195.414459 1680.768433,173.005310 1674.687988,150.853683 
	C1670.887085,137.006027 1661.379028,128.648193 1647.862061,124.205353 
	C1650.547852,118.754860 1651.617676,113.423843 1651.093506,107.755333 
	C1651.039551,107.171059 1651.563110,106.554977 1651.702515,105.927795 
	C1652.819580,100.904427 1653.908691,95.874817 1655.006226,90.847107 
z"/>
<path fill="#319CFB" opacity="1.000000" stroke="none" 
	d="
M612.996704,90.008759 
	C619.862610,92.123001 626.728577,94.237251 633.801392,97.005341 
	C632.672241,103.105370 630.661987,108.492409 630.177490,114.013351 
	C629.621460,120.349358 628.402222,126.208542 624.495850,131.361908 
	C616.412231,125.715256 607.828735,123.330521 598.302734,123.885902 
	C581.691589,124.854347 567.338074,137.084702 564.224976,153.166977 
	C561.123352,169.190262 569.652466,185.433823 584.733643,192.620697 
	C593.575867,196.834381 602.698242,196.680710 612.221313,195.312241 
	C612.659119,197.659958 613.357300,199.804672 612.996460,201.753265 
	C612.323181,205.388962 610.890686,208.876587 610.033936,212.487488 
	C608.582703,218.604065 607.333191,224.768539 605.998901,230.912872 
	C568.963928,233.111389 536.038818,208.764862 529.085083,174.038879 
	C521.653076,136.923874 544.864197,100.477112 581.847656,91.224701 
	C583.939697,90.701332 586.080566,90.372993 588.749023,90.208046 
	C589.867493,90.140488 590.435669,89.818764 591.003845,89.497040 
	C597.373413,89.417831 603.742981,89.338631 610.623291,89.659744 
	C611.754883,90.042953 612.375793,90.025856 612.996704,90.008759 
z"/>
<path fill="#2F8CFB" opacity="1.000000" stroke="none" 
	d="
M293.985260,90.037796 
	C298.104034,90.976906 302.222809,91.916016 306.657745,93.441315 
	C305.309814,103.305405 303.764404,112.607475 301.883179,121.841125 
	C301.499817,123.722710 299.853668,125.347015 298.423553,127.055023 
	C291.061707,126.027672 284.025330,123.990829 277.078796,124.261505 
	C262.877441,124.814857 250.133835,135.890900 245.886139,149.855896 
	C241.800583,163.287842 246.656921,178.512726 257.621033,187.610535 
	C265.628754,194.255203 274.928680,196.382370 285.069244,196.699951 
	C285.427399,198.873978 286.233856,200.759445 285.914001,202.429138 
	C284.091125,211.944534 281.999695,221.408463 279.999512,230.889877 
	C245.447601,230.798920 213.906448,204.834595 209.171478,169.799973 
	C204.026947,131.734955 229.377090,97.100754 267.759125,90.207748 
	C275.357178,88.843239 283.314392,89.478966 291.611511,89.595139 
	C292.739746,90.011269 293.362518,90.024529 293.985260,90.037796 
z"/>
<path fill="#35BAFA" opacity="1.000000" stroke="none" 
	d="
M1206.983643,77.000000 
	C1206.983643,127.114555 1206.983643,176.729111 1206.983643,226.722473 
	C1194.973511,226.722473 1183.399658,226.722473 1171.381714,226.722473 
	C1171.381714,164.454163 1171.381714,102.102104 1171.381714,39.351112 
	C1182.945801,39.351112 1194.515015,39.351112 1206.983643,39.351112 
	C1206.983643,51.682365 1206.983643,64.091187 1206.983643,77.000000 
z"/>
<path fill="#3194FB" opacity="1.000000" stroke="none" 
	d="
M422.090149,106.000000 
	C422.090057,146.459549 422.090057,186.419083 422.090057,226.742752 
	C410.075531,226.742752 398.492249,226.742752 386.468414,226.742752 
	C386.468414,164.457962 386.468414,102.096001 386.468414,39.342094 
	C398.051239,39.342094 409.618805,39.342094 422.090271,39.342094 
	C422.090271,61.357414 422.090271,83.428703 422.090149,106.000000 
z"/>
<path fill="#3298FB" opacity="1.000000" stroke="none" 
	d="
M460.989960,149.000000 
	C460.989960,112.216621 460.989960,75.933235 460.989960,39.301003 
	C473.089233,39.301003 484.658508,39.301003 496.638885,39.301003 
	C496.638885,101.731308 496.638885,164.091690 496.638885,226.780090 
	C484.949219,226.780090 473.368286,226.780090 460.989960,226.780090 
	C460.989960,200.999084 460.989960,175.249542 460.989960,149.000000 
z"/>
<path fill="#33A0FB" opacity="1.000000" stroke="none" 
	d="
M624.830627,131.494751 
	C628.402222,126.208542 629.621460,120.349358 630.177490,114.013351 
	C630.661987,108.492409 632.672241,103.105370 634.026855,97.267517 
	C635.277344,97.229027 636.509277,97.582176 638.201904,98.067383 
	C637.580933,92.666466 640.714722,92.325912 644.666565,92.412285 
	C653.316223,92.601334 661.973816,92.541191 670.626282,92.433365 
	C673.446228,92.398224 674.862000,93.040001 674.855408,96.289879 
	C674.768921,139.059448 674.791443,181.829254 674.771301,224.598999 
	C674.770996,225.232605 674.574646,225.866119 674.375000,227.072418 
	C663.028259,227.072418 651.768616,227.171402 640.517395,226.908081 
	C639.476501,226.883713 638.489502,224.555389 637.860474,223.773193 
	C627.620361,226.174026 617.243530,228.606903 606.432861,230.976334 
	C607.333191,224.768539 608.582703,218.604065 610.033936,212.487488 
	C610.890686,208.876587 612.323181,205.388962 612.996460,201.753265 
	C613.357300,199.804672 612.659119,197.659958 612.471313,195.068390 
	C624.995300,190.255356 633.800537,182.166779 637.166931,169.222656 
	C641.078369,154.182877 635.957153,141.779099 624.830627,131.494751 
z"/>
<path fill="#35BEFA" opacity="1.000000" stroke="none" 
	d="
M1322.992310,90.019516 
	C1324.167480,90.126770 1325.342773,90.234016 1326.767334,90.995232 
	C1326.451172,96.529945 1326.623169,101.649559 1325.139160,106.232956 
	C1323.134155,112.424522 1321.429565,118.482750 1321.580811,125.022156 
	C1317.041260,124.699753 1312.920532,124.097191 1308.801025,124.105972 
	C1286.124390,124.154282 1268.919067,146.484146 1274.720825,168.441971 
	C1279.093384,184.990204 1290.703369,193.423035 1306.997803,196.698853 
	C1304.665405,208.069153 1302.332642,219.034058 1300.000000,229.998978 
	C1271.798218,228.082840 1244.338623,202.657867 1238.928101,173.452576 
	C1231.640625,134.116150 1257.734619,96.578033 1297.243042,90.147224 
	C1304.718506,88.930458 1312.477905,89.457680 1320.612305,89.578827 
	C1321.742920,89.991478 1322.367676,90.005493 1322.992310,90.019516 
z"/>
<path fill="#37CEFA" opacity="1.000000" stroke="none" 
	d="
M1654.673096,90.638741 
	C1653.908691,95.874817 1652.819580,100.904427 1651.702515,105.927795 
	C1651.563110,106.554977 1651.039551,107.171059 1651.093506,107.755333 
	C1651.617676,113.423843 1650.547852,118.754860 1647.413574,124.112900 
	C1643.432373,124.258224 1639.932129,123.764816 1636.467651,123.947968 
	C1621.953979,124.715302 1611.120483,131.557770 1604.719482,144.616714 
	C1598.423584,157.461014 1600.209595,169.894180 1608.335205,181.372437 
	C1614.554688,190.158096 1623.686279,194.319397 1633.998169,196.250763 
	C1632.997559,202.496552 1632.196655,208.783081 1630.932495,214.975037 
	C1629.952148,219.776764 1628.393066,224.460342 1627.045654,229.574448 
	C1598.150635,227.639496 1571.037109,201.210785 1565.994507,171.548264 
	C1558.664795,128.432022 1593.339233,89.565926 1635.994873,88.934555 
	C1642.101196,88.844177 1648.224609,89.903252 1654.673096,90.638741 
z"/>
<path fill="#33A9FB" opacity="1.000000" stroke="none" 
	d="
M791.997681,123.836975 
	C792.723022,122.392342 793.444763,120.945885 794.174561,119.503517 
	C795.104614,117.665428 796.456482,115.924149 796.895020,113.976440 
	C798.075378,108.733574 798.983215,103.420326 799.767944,98.100899 
	C800.205078,95.137146 801.032593,91.829468 797.113647,89.792145 
	C810.588806,90.933502 823.179443,95.629311 833.270996,104.612755 
	C865.861206,133.624680 868.470886,176.708511 841.165405,207.159607 
	C822.320435,228.175476 798.558777,233.971375 771.234314,229.513840 
	C777.545410,219.319199 777.000610,207.584686 779.544067,196.077179 
	C782.691956,195.806381 785.349304,196.087265 788.005249,196.075760 
	C809.417053,195.982971 825.824707,178.239243 824.244751,156.962219 
	C823.290833,144.115753 814.179810,127.532730 791.997681,123.836975 
z"/>
<path fill="#36C2FA" opacity="1.000000" stroke="none" 
	d="
M1322.000000,125.024200 
	C1321.429565,118.482750 1323.134155,112.424522 1325.139160,106.232956 
	C1326.623169,101.649559 1326.451172,96.529945 1327.049805,91.209877 
	C1351.771484,95.824562 1369.278198,110.217293 1378.953125,133.118164 
	C1398.020508,178.251862 1366.772339,223.506638 1323.039429,229.951370 
	C1315.752075,231.025253 1308.193359,230.257904 1300.380127,230.170197 
	C1302.332642,219.034058 1304.665405,208.069153 1307.450928,196.621933 
	C1309.569702,196.124237 1311.235962,196.120300 1312.901611,196.091705 
	C1333.994263,195.729523 1350.624878,176.975052 1348.076660,156.075623 
	C1346.140625,140.197174 1336.669922,130.355972 1322.000000,125.024200 
z"/>
<path fill="#37CAFA" opacity="1.000000" stroke="none" 
	d="
M1469.966553,196.091248 
	C1473.928101,195.791519 1478.034546,196.057587 1481.824097,195.086670 
	C1493.518433,192.090607 1501.023804,182.272293 1501.072021,170.209167 
	C1501.167725,146.236679 1501.214600,122.262634 1501.011719,98.291519 
	C1500.974854,93.943047 1502.056396,92.489334 1506.549072,92.671638 
	C1515.357910,93.029106 1524.193970,92.897552 1533.013672,92.718384 
	C1536.319336,92.651230 1537.282593,93.826340 1537.267944,97.046425 
	C1537.155884,121.684685 1537.415771,146.326233 1537.127563,170.961700 
	C1536.783081,200.392792 1515.738525,225.059387 1486.593384,229.836777 
	C1479.189453,231.050385 1471.423462,230.055450 1463.421875,229.569336 
	C1464.012573,224.949097 1465.117065,220.857956 1465.972412,216.715347 
	C1467.388306,209.858078 1468.643677,202.967697 1469.966553,196.091248 
z"/>
<path fill="#3190FB" opacity="1.000000" stroke="none" 
	d="
M280.454285,230.975967 
	C281.999695,221.408463 284.091125,211.944534 285.914001,202.429138 
	C286.233856,200.759445 285.427399,198.873978 285.466003,196.599518 
	C287.743927,195.724655 289.711426,195.399780 291.647675,194.942688 
	C310.876495,190.403381 322.797516,170.983780 318.267548,151.776947 
	C315.603363,140.481003 308.326324,132.916565 298.789673,127.089920 
	C299.853668,125.347015 301.499817,123.722710 301.883179,121.841125 
	C303.764404,112.607475 305.309814,103.305405 306.983459,93.645470 
	C330.374023,101.411873 345.822906,117.511177 352.585571,141.103821 
	C364.276672,181.889816 337.509644,222.652756 294.796692,229.935471 
	C290.236053,230.713058 285.541504,230.705429 280.454285,230.975967 
z"/>
<path fill="#38C7FA" opacity="1.000000" stroke="none" 
	d="
M1469.689331,195.864700 
	C1468.643677,202.967697 1467.388306,209.858078 1465.972412,216.715347 
	C1465.117065,220.857956 1464.012573,224.949097 1463.010010,229.455475 
	C1435.481934,225.632172 1413.186157,201.275162 1412.504761,173.439377 
	C1411.877197,147.800873 1412.354248,122.136292 1412.204102,96.484016 
	C1412.183716,92.984344 1413.704956,92.334854 1416.733643,92.378578 
	C1425.727173,92.508423 1434.729980,92.620697 1443.716431,92.337181 
	C1447.764038,92.209480 1448.778198,93.602684 1448.752686,97.478371 
	C1448.597290,121.131897 1448.661377,144.786972 1448.680786,168.441498 
	C1448.692871,183.148102 1455.377075,191.884888 1469.689331,195.864700 
z"/>
<path fill="#3087FB" opacity="1.000000" stroke="none" 
	d="
M96.318451,231.323257 
	C96.331848,228.846344 96.671379,226.571045 97.054276,224.303085 
	C98.694122,214.590225 100.346748,204.879547 101.992142,194.739227 
	C117.329742,196.015091 131.797318,193.484894 144.992996,185.195877 
	C148.761459,182.828690 152.284348,180.070526 156.190079,177.299942 
	C164.643494,186.329803 173.134079,195.399384 182.104614,204.981659 
	C158.397415,226.221146 129.843018,235.949875 96.318451,231.323257 
z"/>
<path fill="#34B6FA" opacity="1.000000" stroke="none" 
	d="
M1053.255981,231.621887 
	C1054.922241,220.644775 1056.987427,209.855896 1058.896118,199.039413 
	C1059.107056,197.843338 1058.423950,196.489456 1058.075684,194.853668 
	C1074.948486,196.154770 1090.316772,191.968826 1104.100342,181.972183 
	C1105.176025,181.192032 1106.169434,180.298447 1107.202759,179.459702 
	C1108.089966,178.739517 1108.979492,178.022339 1110.028442,177.174057 
	C1118.723145,186.344589 1127.281006,195.370789 1136.376343,204.963837 
	C1113.341187,225.416763 1085.817261,235.479645 1053.255981,231.621887 
z"/>
<path fill="#3086FB" opacity="1.000000" stroke="none" 
	d="
M110.434052,71.013611 
	C113.374901,64.182541 110.376045,56.045956 115.346008,49.280720 
	C117.498703,46.350414 116.611450,41.102650 116.779106,36.894554 
	C116.802620,36.304287 115.020523,35.254066 113.967918,35.087139 
	C111.538078,34.701809 109.042938,34.728260 106.286674,34.292740 
	C113.895592,34.356632 121.855484,34.205486 129.675858,35.177235 
	C147.636749,37.409035 172.054962,50.319771 182.276398,62.075535 
	C173.749405,71.169479 165.258286,80.225174 156.403412,89.668800 
	C143.124115,77.708122 128.216934,71.264648 110.434052,71.013611 
z"/>
<path fill="#36C2FA" opacity="1.000000" stroke="none" 
	d="
M1322.798828,89.820465 
	C1322.367676,90.005493 1321.742920,89.991478 1321.059692,89.726517 
	C1321.535889,89.524193 1322.070679,89.572807 1322.798828,89.820465 
z"/>
<path fill="#33A9FB" opacity="1.000000" stroke="none" 
	d="
M776.742004,89.523636 
	C776.430725,89.901817 775.860291,90.180443 775.154114,90.251434 
	C775.506531,89.837227 775.994690,89.630653 776.742004,89.523636 
z"/>
<path fill="#33A0FB" opacity="1.000000" stroke="none" 
	d="
M612.797241,89.816048 
	C612.375793,90.025856 611.754883,90.042953 611.066040,89.819511 
	C611.531311,89.593758 612.064514,89.608551 612.797241,89.816048 
z"/>
<path fill="#33A0FB" opacity="1.000000" stroke="none" 
	d="
M590.734192,89.436302 
	C590.435669,89.818764 589.867493,90.140488 589.157715,90.250397 
	C589.498962,89.817574 589.981750,89.596565 590.734192,89.436302 
z"/>
<path fill="#3087FB" opacity="1.000000" stroke="none" 
	d="
M94.764954,192.918167 
	C94.335602,193.050552 93.714775,192.982422 93.044159,192.660553 
	C93.520752,192.510406 94.047112,192.614029 94.764954,192.918167 
z"/>
<path fill="#3086FB" opacity="1.000000" stroke="none" 
	d="
M90.732056,35.387615 
	C90.440361,35.787521 89.875923,36.130764 89.166031,36.262199 
	C89.500153,35.810585 89.979736,35.570770 90.732056,35.387615 
z"/>
<path fill="#3086FB" opacity="1.000000" stroke="none" 
	d="
M96.744095,34.532349 
	C96.431793,34.903618 95.860291,35.182007 95.153526,35.252808 
	C95.507149,34.843300 95.996017,34.641384 96.744095,34.532349 
z"/>
<path fill="#3190FB" opacity="1.000000" stroke="none" 
	d="
M293.789032,89.844337 
	C293.362518,90.024529 292.739746,90.011269 292.057068,89.748703 
	C292.529053,89.549896 293.060913,89.600388 293.789032,89.844337 
z"/>
<path fill="#FDFEFF" opacity="1.000000" stroke="none" 
	d="
M791.536316,123.885048 
	C814.179810,127.532730 823.290833,144.115753 824.244751,156.962219 
	C825.824707,178.239243 809.417053,195.982971 788.005249,196.075760 
	C785.349304,196.087265 782.691956,195.806381 779.576599,195.622787 
	C756.901367,189.304901 744.914001,169.771255 751.143433,149.622589 
	C755.785583,134.608017 770.133240,122.206245 791.536316,123.885048 
z"/>
<path fill="#FDFEFF" opacity="1.000000" stroke="none" 
	d="
M1634.453613,196.185913 
	C1623.686279,194.319397 1614.554688,190.158096 1608.335205,181.372437 
	C1600.209595,169.894180 1598.423584,157.461014 1604.719482,144.616714 
	C1611.120483,131.557770 1621.953979,124.715302 1636.467651,123.947968 
	C1639.932129,123.764816 1643.432373,124.258224 1647.364624,124.532898 
	C1661.379028,128.648193 1670.887085,137.006027 1674.687988,150.853683 
	C1680.768433,173.005310 1663.898926,195.414459 1640.892700,196.081970 
	C1638.899414,196.139832 1636.903687,196.110092 1634.453613,196.185913 
z"/>
<path fill="#FDFEFF" opacity="1.000000" stroke="none" 
	d="
M624.495850,131.361908 
	C635.957153,141.779099 641.078369,154.182877 637.166931,169.222656 
	C633.800537,182.166779 624.995300,190.255356 612.253845,194.776886 
	C602.698242,196.680710 593.575867,196.834381 584.733643,192.620697 
	C569.652466,185.433823 561.123352,169.190262 564.224976,153.166977 
	C567.338074,137.084702 581.691589,124.854347 598.302734,123.885902 
	C607.828735,123.330521 616.412231,125.715256 624.495850,131.361908 
z"/>
<path fill="#FDFEFF" opacity="1.000000" stroke="none" 
	d="
M298.423553,127.055023 
	C308.326324,132.916565 315.603363,140.481003 318.267548,151.776947 
	C322.797516,170.983780 310.876495,190.403381 291.647675,194.942688 
	C289.711426,195.399780 287.743927,195.724655 285.394165,196.211319 
	C274.928680,196.382370 265.628754,194.255203 257.621033,187.610535 
	C246.656921,178.512726 241.800583,163.287842 245.886139,149.855896 
	C250.133835,135.890900 262.877441,124.814857 277.078796,124.261505 
	C284.025330,123.990829 291.061707,126.027672 298.423553,127.055023 
z"/>
<path fill="#FDFEFF" opacity="1.000000" stroke="none" 
	d="
M1321.580811,125.022156 
	C1336.669922,130.355972 1346.140625,140.197174 1348.076660,156.075623 
	C1350.624878,176.975052 1333.994263,195.729523 1312.901611,196.091705 
	C1311.235962,196.120300 1309.569702,196.124237 1307.450684,196.216537 
	C1290.703369,193.423035 1279.093384,184.990204 1274.720825,168.441971 
	C1268.919067,146.484146 1286.124390,124.154282 1308.801025,124.105972 
	C1312.920532,124.097191 1317.041260,124.699753 1321.580811,125.022156 
z"/>
</svg>